<svg width="98" height="66" viewBox="0 0 98 66" fill="none" xmlns="http://www.w3.org/2000/svg">
<path d="M34.49 50.9521C34.49 43.0038 40.9389 36.4379 49 36.4379C56.9459 36.4379 63.51 42.8886 63.51 50.9521C63.51 59.0155 56.9459 65.4663 49 65.4663C40.9389 65.4663 34.49 59.0155 34.49 50.9521Z" fill="white"/>
<path d="M52.8002 2.55991C54.8731 4.63337 54.8731 8.08913 52.8002 10.2778L9.27027 53.7052C7.19741 55.7786 3.74266 55.7786 1.55464 53.7052C-0.518214 51.6317 -0.518214 48.176 1.55464 45.9873L45.1998 2.55991C47.2726 0.382781 50.7274 0.382781 52.8002 2.55991Z" fill="white"/>
<path d="M45.1998 2.55991C43.1269 4.63337 43.1269 8.08913 45.1998 10.2778L88.7297 53.8204C90.8026 55.8938 94.2574 55.8938 96.4454 53.8204C98.5182 51.7469 98.5182 48.2911 96.4454 46.1025L52.8003 2.55991C50.7274 0.382781 47.2726 0.382781 45.1998 2.55991Z" fill="white"/>
</svg>
