<svg width="84" height="53" viewBox="0 0 84 53" fill="none" xmlns="http://www.w3.org/2000/svg">
<path d="M81.6423 5.51857L80.3012 4.75248C78.2561 3.58669 75.6075 4.28616 74.434 6.31796L69.3379 15.078C69.2038 15.2779 69.1032 15.511 68.9691 15.7109L66.1864 20.474C65.2476 22.0728 64.3424 23.6382 63.4037 25.237C62.1296 27.4021 60.8891 29.5671 59.6486 31.7321C58.4417 33.7972 57.2347 35.8957 56.0277 37.9608C55.3907 39.0599 54.7872 40.1591 53.7814 40.9918C51.7027 42.6905 48.1154 42.3575 46.5731 40.1591C45.5003 38.6269 44.595 36.9948 43.6563 35.396C42.3823 33.231 41.1418 31.0327 39.8677 28.8676C38.6943 26.8358 37.4873 24.804 36.3139 22.7722C35.4086 21.2067 34.5369 19.6079 33.6317 18.0425C32.4247 15.9773 31.2178 13.9122 30.0108 11.8471C28.8038 9.81532 27.6975 7.75022 26.3564 5.81834C24.613 3.32022 22.1655 1.68812 19.2822 0.722181C17.3712 0.0893249 15.4266 -0.110524 13.415 0.0560166C10.1964 0.322482 7.38012 1.52158 4.96618 3.65331C3.52452 4.91902 2.3846 6.41789 1.54643 8.11661C0.808838 9.58217 0.33946 11.1143 0.138299 12.7131C-0.230498 15.3778 0.138298 17.9092 1.24469 20.3407C1.74759 21.4399 2.3846 22.5058 2.95456 23.5383C3.82626 25.0705 4.69796 26.5694 5.56966 28.0682C6.30726 29.3672 7.07838 30.633 7.8495 31.932C8.88883 33.7306 9.92817 35.5626 10.9675 37.3945C12.2415 39.6262 13.5826 41.7912 14.8566 44.0229C16.0971 46.1879 17.6394 48.0199 19.718 49.3855C21.7632 50.7511 23.976 51.6171 26.4234 51.9169C28.5356 52.1834 30.6478 52.0501 32.693 51.4839C35.1404 50.8177 37.2526 49.6186 39.0296 47.82C39.3313 47.5202 39.566 47.5202 39.9013 47.82C40.4377 48.3196 40.9741 48.7859 41.5441 49.2189C43.254 50.518 45.1985 51.3507 47.2772 51.7837C49.8252 52.3166 52.4068 52.25 54.9213 51.5172C58.7769 50.3847 61.7273 48.1198 63.8395 44.7223C64.6106 43.4566 65.3147 42.1909 66.0523 40.8919C67.2257 38.8934 68.4327 36.8949 69.5726 34.8964C70.8131 32.7647 72.0201 30.5997 73.2606 28.4679C74.5346 26.3029 75.8086 24.1379 77.0491 21.9395C77.2503 21.6064 77.4514 21.2734 77.6191 20.907L83.2181 11.3475C84.3915 9.28239 83.6875 6.68435 81.6423 5.51857ZM33.33 38.96C33.0953 39.2265 32.9612 39.5263 32.76 39.7927C30.3461 42.8904 25.8199 42.6572 23.8419 39.3264C22.5008 37.0614 21.1932 34.7965 19.8857 32.5315C18.0752 29.4339 16.2983 26.3362 14.4878 23.2385C13.2473 21.1068 12.0068 19.0084 10.7663 16.91C10.364 16.2105 10.0958 15.4444 10.1629 14.7449C10.2634 11.3142 13.8508 9.01593 16.9688 10.8479C17.9411 11.4141 18.5111 12.3468 19.0475 13.2794C20.6568 16.044 22.2661 18.7752 23.8419 21.5398C25.3841 24.2045 26.9263 26.9024 28.4686 29.5671C29.8432 31.932 31.2513 34.3302 32.6259 36.6951C32.8941 37.1614 33.1623 37.5944 33.4306 38.0607C33.6652 38.3605 33.5982 38.6602 33.33 38.96Z" fill="white"/>
<path d="M61.4428 9.7377C50.204 7.52809 47.3702 14.5793 47.2736 14.8068C46.5007 16.1715 45.6957 17.5363 44.8906 18.9336C43.7957 20.8182 42.733 22.7029 41.6381 24.62C41.4127 25.01 41.2195 25.3999 40.9619 25.8223C41.1551 26.1473 41.3161 26.4397 41.5093 26.7322C42.2822 28.0644 43.0228 29.3642 43.7957 30.6965C44.633 32.1587 45.4702 33.6534 46.2753 35.1157C46.4685 35.4406 46.6939 35.4731 46.9194 35.1482C47.0804 34.9207 47.1448 34.6608 47.2736 34.4333C48.1431 32.9061 49.0447 31.3788 49.9142 29.8516C51.1379 27.7395 52.3294 25.5949 53.5531 23.4827C54.165 22.4104 54.7768 21.3381 55.3887 20.2983L61.4428 9.7377Z" fill="#90C544"/>
</svg>
